<svg width="1200" height="800" viewBox="0 0 1200 800" fill="none" xmlns="http://www.w3.org/2000/svg">
<rect width="1200" height="800" rx="40" fill="#F4EFE7"/>
<rect x="90" y="100" width="1020" height="600" rx="30" fill="#FFFFFF"/>
<rect x="144" y="164" width="440" height="472" rx="28" fill="#343434"/>
<circle cx="364" cy="310" r="110" fill="#FFBD59"/>
<rect x="284" y="446" width="160" height="24" rx="12" fill="white"/>
<rect x="238" y="488" width="252" height="18" rx="9" fill="white" fill-opacity=".62"/>
<rect x="640" y="190" width="252" height="20" rx="10" fill="#343434"/>
<rect x="640" y="238" width="370" height="14" rx="7" fill="#343434" fill-opacity=".55"/>
<rect x="640" y="270" width="322" height="14" rx="7" fill="#343434" fill-opacity=".55"/>
<rect x="640" y="338" width="414" height="104" rx="22" fill="#FFF6E8"/>
<rect x="670" y="372" width="120" height="14" rx="7" fill="#343434"/>
<rect x="670" y="406" width="200" height="12" rx="6" fill="#343434" fill-opacity=".55"/>
<rect x="640" y="474" width="414" height="124" rx="22" fill="#D7EAF4"/>
<rect x="670" y="512" width="130" height="14" rx="7" fill="#343434"/>
<rect x="670" y="546" width="240" height="12" rx="6" fill="#343434" fill-opacity=".55"/>
<rect x="670" y="574" width="182" height="12" rx="6" fill="#343434" fill-opacity=".55"/>
</svg>