<svg width="224" height="224" viewBox="0 0 224 224" fill="none" xmlns="http://www.w3.org/2000/svg">
<circle cx="112" cy="112" r="112" fill="white"/>
<path d="M37.4659 159V65.9091H57.1477V142.773H97.0568V159H37.4659ZM188.602 98.5H168.693C168.33 95.9242 167.587 93.6364 166.466 91.6364C165.345 89.6061 163.905 87.8788 162.148 86.4545C160.39 85.0303 158.36 83.9394 156.057 83.1818C153.784 82.4242 151.314 82.0455 148.648 82.0455C143.83 82.0455 139.633 83.2424 136.057 85.6364C132.481 88 129.708 91.4545 127.739 96C125.769 100.515 124.784 106 124.784 112.455C124.784 119.091 125.769 124.667 127.739 129.182C129.739 133.697 132.527 137.106 136.102 139.409C139.678 141.712 143.814 142.864 148.511 142.864C151.148 142.864 153.587 142.515 155.83 141.818C158.102 141.121 160.117 140.106 161.875 138.773C163.633 137.409 165.087 135.758 166.239 133.818C167.42 131.879 168.239 129.667 168.693 127.182L188.602 127.273C188.087 131.545 186.799 135.667 184.739 139.636C182.708 143.576 179.966 147.106 176.511 150.227C173.087 153.318 168.996 155.773 164.239 157.591C159.511 159.379 154.163 160.273 148.193 160.273C139.89 160.273 132.466 158.394 125.92 154.636C119.405 150.879 114.254 145.439 110.466 138.318C106.708 131.197 104.83 122.576 104.83 112.455C104.83 102.303 106.739 93.6667 110.557 86.5455C114.375 79.4242 119.557 74 126.102 70.2727C132.648 66.5151 140.011 64.6364 148.193 64.6364C153.587 64.6364 158.587 65.3939 163.193 66.9091C167.83 68.4242 171.936 70.6364 175.511 73.5454C179.087 76.4242 181.996 79.9545 184.239 84.1364C186.511 88.3182 187.966 93.1061 188.602 98.5Z" fill="black"/>
</svg>
