<svg width="1200" height="800" viewBox="0 0 1200 800" fill="none" xmlns="http://www.w3.org/2000/svg">
<rect width="1200" height="800" rx="40" fill="#F5EFE7"/>
<rect x="80" y="110" width="760" height="520" rx="34" fill="#D7EAF4"/>
<rect x="112" y="142" width="696" height="456" rx="28" fill="#CFE1E9"/>
<circle cx="246" cy="248" r="72" fill="#FFBD59"/>
<path d="M460 210H716" stroke="#343434" stroke-width="20" stroke-linecap="round"/>
<path d="M460 278H660" stroke="#343434" stroke-opacity=".6" stroke-width="16" stroke-linecap="round"/>
<path d="M462 378C530 331 602 301 678 288C755 275 843 291 942 338" stroke="#343434" stroke-width="16" stroke-linecap="round"/>
<path d="M462 449C534 388 608 355 684 350C780 344 869 380 944 448" stroke="#FFBD59" stroke-width="18" stroke-linecap="round"/>
<rect x="870" y="140" width="240" height="156" rx="24" fill="#343434"/>
<rect x="900" y="184" width="120" height="16" rx="8" fill="#FFBD59"/>
<rect x="900" y="224" width="162" height="12" rx="6" fill="white" fill-opacity=".62"/>
<rect x="900" y="256" width="98" height="12" rx="6" fill="white" fill-opacity=".62"/>
<rect x="870" y="332" width="240" height="190" rx="24" fill="#FFFFFF"/>
<rect x="900" y="370" width="128" height="16" rx="8" fill="#343434"/>
<rect x="900" y="410" width="160" height="14" rx="7" fill="#343434" fill-opacity=".55"/>
<circle cx="948" cy="478" r="30" fill="#FFBD59"/>
<circle cx="1020" cy="478" r="30" fill="#D8E5EA"/>
<circle cx="1090" cy="478" r="20" fill="#343434"/>
<rect x="118" y="660" width="992" height="40" rx="20" fill="#343434"/>
</svg>