<svg width="1600" height="1000" viewBox="0 0 1600 1000" fill="none" xmlns="http://www.w3.org/2000/svg">
<defs>
  <linearGradient id="sky" x1="800" y1="0" x2="800" y2="1000" gradientUnits="userSpaceOnUse">
    <stop stop-color="#4DB3C3"/>
    <stop offset="0.38" stop-color="#7CC7D4"/>
    <stop offset="0.6" stop-color="#F5B07C"/>
    <stop offset="0.82" stop-color="#F5D1A6"/>
    <stop offset="1" stop-color="#1D6570"/>
  </linearGradient>
  <radialGradient id="sun" cx="0" cy="0" r="1" gradientUnits="userSpaceOnUse" gradientTransform="translate(804 582) rotate(90) scale(220 320)">
    <stop stop-color="#FFF2B8"/>
    <stop offset="0.45" stop-color="#FFD18A"/>
    <stop offset="1" stop-color="#FFD18A" stop-opacity="0"/>
  </radialGradient>
  <linearGradient id="sea" x1="800" y1="564" x2="800" y2="1000" gradientUnits="userSpaceOnUse">
    <stop stop-color="#2A9AA7"/>
    <stop offset="1" stop-color="#164850"/>
  </linearGradient>
  <linearGradient id="sand" x1="801" y1="723" x2="801" y2="1000" gradientUnits="userSpaceOnUse">
    <stop stop-color="#F0D3BA"/>
    <stop offset="1" stop-color="#C99B78"/>
  </linearGradient>
  <filter id="blur" x="-200" y="-200" width="2000" height="1400" filterUnits="userSpaceOnUse">
    <feGaussianBlur stdDeviation="28"/>
  </filter>
</defs>
<rect width="1600" height="1000" fill="url(#sky)"/>
<ellipse cx="804" cy="576" rx="260" ry="200" fill="url(#sun)"/>
<g opacity="0.45" filter="url(#blur)">
  <path d="M0 227C140 296 301 308 474 283C665 254 788 198 965 201C1121 204 1337 306 1600 367V0H0V227Z" fill="#D48889"/>
  <path d="M0 335C135 381 245 403 422 377C603 351 712 260 878 250C1061 239 1255 310 1600 451V254C1404 256 1193 218 1011 215C812 212 664 292 467 314C291 334 150 319 0 278V335Z" fill="#8ED4DB"/>
</g>
<rect y="560" width="1600" height="440" fill="url(#sea)"/>
<path d="M0 720C93 693 200 688 321 716C433 742 527 738 620 718C753 688 845 645 990 662C1119 677 1226 741 1356 745C1450 748 1531 728 1600 696V1000H0V720Z" fill="url(#sand)"/>
<path d="M0 661C94 637 185 630 274 640C374 651 467 690 600 685C691 681 797 640 904 638C1032 635 1146 675 1260 679C1391 684 1489 661 1600 618" stroke="rgba(255,255,255,0.75)" stroke-width="18" stroke-linecap="round"/>
<path d="M0 702C76 676 163 666 259 676C388 689 480 733 590 729C718 725 827 671 961 675C1081 678 1181 734 1319 737C1431 740 1519 722 1600 696" stroke="rgba(255,255,255,0.58)" stroke-width="10" stroke-linecap="round"/>
<path d="M104 0C188 53 272 126 359 205C295 205 227 233 155 291C216 213 249 144 265 84C215 105 167 132 120 163C141 101 136 46 104 0Z" fill="#2E1B18"/>
<path d="M161 0C262 52 360 145 463 280C383 261 303 265 223 290C307 212 350 127 367 38C301 87 236 134 173 180C208 110 205 50 161 0Z" fill="#261615"/>
<path d="M1355 0C1272 62 1188 152 1097 283C1176 254 1255 249 1335 269C1250 196 1208 109 1193 23C1258 79 1321 133 1385 183C1350 110 1345 48 1355 0Z" fill="#261615"/>
<path d="M1498 0C1409 39 1314 112 1214 220C1293 213 1366 229 1436 264C1375 190 1341 121 1329 56C1380 89 1431 125 1482 162C1464 104 1471 50 1498 0Z" fill="#301C18"/>
</svg>