<svg width="1200" height="800" viewBox="0 0 1200 800" fill="none" xmlns="http://www.w3.org/2000/svg">
<rect width="1200" height="800" rx="40" fill="#EEE8E0"/>
<rect x="92" y="96" width="1016" height="608" rx="30" fill="#FFFFFF"/>
<rect x="132" y="144" width="500" height="300" rx="24" fill="#343434"/>
<path d="M180 344L266 274L348 296L444 216L578 188" stroke="#FFBD59" stroke-width="18" stroke-linecap="round" stroke-linejoin="round"/>
<circle cx="266" cy="274" r="14" fill="#FFBD59"/>
<circle cx="348" cy="296" r="14" fill="#FFBD59"/>
<circle cx="444" cy="216" r="14" fill="#FFBD59"/>
<circle cx="578" cy="188" r="14" fill="#FFBD59"/>
<rect x="684" y="144" width="384" height="104" rx="24" fill="#D7EAF4"/>
<rect x="718" y="182" width="136" height="16" rx="8" fill="#343434"/>
<rect x="718" y="214" width="224" height="12" rx="6" fill="#343434" fill-opacity=".55"/>
<rect x="684" y="272" width="384" height="172" rx="24" fill="#F6F0E7"/>
<rect x="718" y="312" width="120" height="16" rx="8" fill="#343434"/>
<rect x="718" y="352" width="300" height="14" rx="7" fill="#343434" fill-opacity=".55"/>
<rect x="718" y="390" width="238" height="14" rx="7" fill="#343434" fill-opacity=".55"/>
<rect x="132" y="476" width="936" height="180" rx="24" fill="#FFF6E8"/>
<rect x="164" y="518" width="200" height="20" rx="10" fill="#343434"/>
<rect x="164" y="564" width="240" height="14" rx="7" fill="#343434" fill-opacity=".55"/>
<rect x="474" y="516" width="166" height="98" rx="20" fill="#FFBD59"/>
<rect x="662" y="516" width="166" height="98" rx="20" fill="#D7EAF4"/>
<rect x="850" y="516" width="186" height="98" rx="20" fill="#343434"/>
</svg>